<?xml version="1.0" encoding="utf-8"?>
<!-- Generator: Adobe Illustrator 26.3.1, SVG Export Plug-In . SVG Version: 6.00 Build 0)  -->
<svg version="1.1" id="Layer_1" xmlns="http://www.w3.org/2000/svg" xmlns:xlink="http://www.w3.org/1999/xlink" x="0px" y="0px"
	 viewBox="0 0 14 14" style="enable-background:new 0 0 14 14;" xml:space="preserve">
<style type="text/css">
	.st0{fill-rule:evenodd;clip-rule:evenodd;fill:#FFFFFF;}
	.st1{fill:#FFFFFF;}
</style>
<g>
	<path class="st0" d="M8,4.8c0.2,0,0.4,0,0.6,0c0,0,0.1,0,0.1,0V3.7c-0.1,0-0.2,0-0.3,0c-0.2,0-0.4,0-0.6,0C7.4,3.7,7.1,3.8,6.9,4
		C6.6,4.2,6.4,4.5,6.3,4.9c0,0.2,0,0.3,0,0.5c0,0.2,0,0.5,0,0.7v0.1h-1v1.2h1v3h1.2v-3h1c0.1-0.4,0.1-0.8,0.2-1.2
		c-0.1,0-0.2,0-0.2,0c-0.3,0-1,0-1,0s0-0.6,0-0.8C7.5,4.9,7.8,4.8,8,4.8z"/>
	<path class="st1" d="M7,13.5c-3.6,0-6.5-2.9-6.5-6.5S3.4,0.5,7,0.5s6.5,2.9,6.5,6.5S10.6,13.5,7,13.5z M7,0.8
		C3.6,0.8,0.8,3.6,0.8,7c0,3.4,2.8,6.2,6.2,6.2c3.4,0,6.2-2.8,6.2-6.2C13.2,3.6,10.4,0.8,7,0.8z"/>
</g>
</svg>
