<?xml version="1.0" encoding="utf-8"?>
<!-- Generator: Adobe Illustrator 26.3.1, SVG Export Plug-In . SVG Version: 6.00 Build 0)  -->
<svg version="1.1" id="Layer_1" xmlns="http://www.w3.org/2000/svg" xmlns:xlink="http://www.w3.org/1999/xlink" x="0px" y="0px"
	 viewBox="0 0 14 14" style="enable-background:new 0 0 14 14;" xml:space="preserve">
<style type="text/css">
	.st0{fill-rule:evenodd;clip-rule:evenodd;fill:#FFFFFF;}
	.st1{fill:#FFFFFF;}
</style>
<g>
	<path class="st0" d="M5.8,8.4c-0.7,0-1.1-0.5-1.2-0.9c0.2,0,0.4,0,0.5,0c0,0,0,0,0,0C4.8,7.4,4.5,7.2,4.4,6.9
		C4.2,6.7,4.2,6.5,4.2,6.3c0.2,0.1,0.4,0.1,0.6,0.2C4.5,6.2,4.3,6,4.2,5.6C4.1,5.3,4.2,5,4.3,4.7C5,5.5,5.9,6,7,6.1c0,0,0-0.1,0-0.1
		c0-0.3,0-0.6,0.2-0.8C7.3,4.8,7.6,4.6,8,4.5c0.4-0.1,0.8,0.1,1.1,0.4c0,0,0,0,0.1,0c0.3-0.1,0.5-0.1,0.7-0.3c0,0,0,0,0,0
		c0,0,0,0,0,0C9.8,4.9,9.6,5.1,9.4,5.3c0.2,0,0.5-0.1,0.7-0.2c0,0,0,0,0,0c0,0.1-0.1,0.1-0.1,0.2C9.8,5.5,9.6,5.6,9.5,5.7
		c0,0,0,0,0,0c0,0.2,0,0.4,0,0.6c0,0.4-0.2,0.8-0.3,1.1c-0.2,0.4-0.4,0.7-0.7,1c-0.5,0.5-1.1,0.8-1.7,1C6.4,9.5,6.2,9.5,6,9.5
		C5.2,9.5,4.6,9.3,4,9c0,0,0,0,0,0c0.4,0,0.9,0,1.3-0.2C5.4,8.7,5.6,8.6,5.8,8.4z"/>
	<path class="st1" d="M7,13.5c-3.6,0-6.5-2.9-6.5-6.5S3.4,0.5,7,0.5s6.5,2.9,6.5,6.5S10.6,13.5,7,13.5z M7,0.8
		C3.6,0.8,0.8,3.6,0.8,7c0,3.4,2.8,6.2,6.2,6.2c3.4,0,6.2-2.8,6.2-6.2C13.2,3.6,10.4,0.8,7,0.8z"/>
</g>
</svg>
