<?xml version="1.0" encoding="utf-8"?>
<!-- Generator: Adobe Illustrator 26.3.1, SVG Export Plug-In . SVG Version: 6.00 Build 0)  -->
<svg version="1.1" id="레이어_1" xmlns="http://www.w3.org/2000/svg" xmlns:xlink="http://www.w3.org/1999/xlink" x="0px"
	 y="0px" viewBox="0 0 400 400" style="enable-background:new 0 0 400 400;" xml:space="preserve">
<style type="text/css">
	.st0{fill:#231815;}
</style>
<g>
	<path class="st0" d="M200,27.7C105,27.7,27.7,105,27.7,200S105,372.3,200,372.3S372.3,295,372.3,200S295,27.7,200,27.7z M200,364.3
		c-90.6,0-164.3-73.7-164.3-164.3S109.4,35.7,200,35.7S364.3,109.4,364.3,200S290.6,364.3,200,364.3z"/>
	<polygon class="st0" points="293.3,196.8 293.3,196 292.4,196 215.5,119.1 209.9,124.7 281.1,196 98.7,196 98.7,204 281.1,204 
		209.9,275.3 215.5,280.9 292.4,204 293.3,204 293.3,203.2 296.4,200 	"/>
</g>
</svg>
