<?xml version="1.0" encoding="utf-8"?>
<!-- Generator: Adobe Illustrator 26.3.1, SVG Export Plug-In . SVG Version: 6.00 Build 0)  -->
<svg version="1.1" id="레이어_1" xmlns="http://www.w3.org/2000/svg" xmlns:xlink="http://www.w3.org/1999/xlink" x="0px"
	 y="0px" viewBox="0 0 400 400" style="enable-background:new 0 0 400 400;" xml:space="preserve">
<style type="text/css">
	.st0{fill:#231815;}
</style>
<g>
	<path class="st0" d="M200,21.2c-98.6,0-178.8,80.2-178.8,178.8c0,98.6,80.2,178.8,178.8,178.8c98.6,0,178.8-80.2,178.8-178.8
		C378.8,101.4,298.6,21.2,200,21.2z M200,357.8C113,357.8,42.2,287,42.2,200C42.2,113,113,42.2,200,42.2
		c87,0,157.8,70.8,157.8,157.8C357.8,287,287,357.8,200,357.8z"/>
	<polygon class="st0" points="200.7,124.7 265.4,189.5 92.2,189.5 92.2,210.5 265.4,210.5 200.7,275.3 215.5,290.1 305.6,200 
		215.5,109.9 	"/>
</g>
</svg>
