<?xml version="1.0" encoding="utf-8"?>
<!-- Generator: Adobe Illustrator 26.3.1, SVG Export Plug-In . SVG Version: 6.00 Build 0)  -->
<svg version="1.1" id="Layer_1" xmlns="http://www.w3.org/2000/svg" xmlns:xlink="http://www.w3.org/1999/xlink" x="0px" y="0px"
	 viewBox="0 0 14 14" style="enable-background:new 0 0 14 14;" xml:space="preserve">
<style type="text/css">
	.st0{fill-rule:evenodd;clip-rule:evenodd;fill:#FFFFFF;}
	.st1{fill:#FFFFFF;}
</style>
<g>
	<path class="st0" d="M4.3,9.3C4,9.2,3.8,9,3.7,8.8C3.5,8.1,3.4,5.5,3.9,5C4,4.8,4.2,4.7,4.5,4.7c1.2-0.1,4.8-0.1,5.3,0
		C10,4.8,10.2,5,10.2,5.2c0.2,0.6,0.3,3,0,3.6C10.1,9,10,9.1,9.8,9.2C9.4,9.5,4.9,9.5,4.3,9.3z M6.2,8c0.7-0.4,1.4-0.7,2.1-1.1
		C7.6,6.6,6.9,6.2,6.2,5.8C6.2,6.6,6.2,7.3,6.2,8z"/>
	<path class="st1" d="M7,13.5c-3.6,0-6.5-2.9-6.5-6.5S3.4,0.5,7,0.5s6.5,2.9,6.5,6.5S10.6,13.5,7,13.5z M7,0.8
		C3.6,0.8,0.8,3.6,0.8,7c0,3.4,2.8,6.2,6.2,6.2s6.2-2.8,6.2-6.2C13.2,3.6,10.4,0.8,7,0.8z"/>
</g>
</svg>
