<?xml version="1.0" encoding="utf-8"?>
<!-- Generator: Adobe Illustrator 26.3.1, SVG Export Plug-In . SVG Version: 6.00 Build 0)  -->
<svg version="1.1" id="Layer_1" xmlns="http://www.w3.org/2000/svg" xmlns:xlink="http://www.w3.org/1999/xlink" x="0px" y="0px"
	 viewBox="0 0 14 14" style="enable-background:new 0 0 14 14;" xml:space="preserve">
<g id="User_1_">
	<path d="M7,6.6c1.7,0,3-1.4,3-3s-1.4-3-3-3c-1.7,0-3,1.4-3,3S5.3,6.6,7,6.6z M7,1.3c1.2,0,2.2,1,2.2,2.2S8.2,5.8,7,5.8
		c-1.2,0-2.2-1-2.2-2.2S5.8,1.3,7,1.3z"/>
	<path d="M7,6.9c-2.9,0-5.3,2.4-5.3,5.3v0.9c0,0.2,0.2,0.4,0.4,0.4c0.2,0,0.4-0.2,0.4-0.4v-0.9c0-2.5,2-4.5,4.5-4.5
		c2.5,0,4.5,2,4.5,4.5v0.9c0,0.2,0.2,0.4,0.4,0.4c0.2,0,0.4-0.2,0.4-0.4v-0.9C12.3,9.3,9.9,6.9,7,6.9z"/>
</g>
</svg>
