<?xml version="1.0" encoding="utf-8"?>
<!-- Generator: Adobe Illustrator 26.3.1, SVG Export Plug-In . SVG Version: 6.00 Build 0)  -->
<svg version="1.1" id="Layer_1" xmlns="http://www.w3.org/2000/svg" xmlns:xlink="http://www.w3.org/1999/xlink" x="0px" y="0px"
	 viewBox="0 0 14 14" style="enable-background:new 0 0 14 14;" xml:space="preserve">
<g>
	<path d="M13.4,1.2c-0.1-0.3-0.3-0.4-0.6-0.3l-2.4,0.9c-0.1,0-0.3,0.2-0.3,0.3L8.4,7.7c-1.2,0-5.2,0-5.7,0C2.5,7.1,1.5,3.5,1.5,3.5
		C1.4,3.2,1.1,3.1,0.9,3.1C0.7,3.2,0.5,3.5,0.5,3.7l1.3,4.6c0,0.2,0.3,0.4,0.5,0.4h5.8C8,9,7.9,9.6,7.8,9.9c-0.6,0-5.5,0-5.5,0
		c-0.3,0-0.5,0.2-0.5,0.5c0,0.3,0.2,0.4,0.5,0.4h5.8c0.2,0,0.4-0.1,0.5-0.3l0.6-2.2l0,0C9.3,8,10.9,2.9,11,2.6
		c0.4-0.1,2.2-0.9,2.2-0.9c0.2-0.1,0.3-0.2,0.3-0.4C13.5,1.3,13.5,1.2,13.4,1.2L13.4,1.2z M2.5,11.1c-0.6,0-1,0.5-1,1
		c0,0.5,0.5,1,1,1c0.6,0,1-0.5,1-1C3.5,11.6,3.1,11.1,2.5,11.1L2.5,11.1z M8,11.1c-0.6,0-1,0.5-1,1c0,0.5,0.5,1,1,1c0.6,0,1-0.5,1-1
		C9,11.6,8.6,11.1,8,11.1L8,11.1z"/>
</g>
</svg>
