<?xml version="1.0" encoding="utf-8"?>
<!-- Generator: Adobe Illustrator 26.3.1, SVG Export Plug-In . SVG Version: 6.00 Build 0)  -->
<svg version="1.1" id="Layer_1" xmlns="http://www.w3.org/2000/svg" xmlns:xlink="http://www.w3.org/1999/xlink" x="0px" y="0px"
	 viewBox="0 0 14 14" style="enable-background:new 0 0 14 14;" xml:space="preserve">
<g id="Map_pin_1_">
	<path d="M7,0.8c-2.8,0-5,2.2-5,5C2,8.2,4.6,11,6.7,13L7,13.2L7.3,13C9.7,10.7,12,8.2,12,5.8C12,3,9.8,0.8,7,0.8z M7,12.2
		C4.3,9.6,2.8,7.4,2.8,5.8c0-2.3,1.9-4.2,4.2-4.2c2.3,0,4.2,1.9,4.2,4.2C11.2,7.8,9.2,10.1,7,12.2z"/>
	<path d="M7,3.9c-1.1,0-1.9,0.9-1.9,1.9S5.9,7.7,7,7.7s1.9-0.9,1.9-1.9S8.1,3.9,7,3.9z M7,6.9c-0.6,0-1.2-0.5-1.2-1.2S6.4,4.6,7,4.6
		s1.2,0.5,1.2,1.2S7.6,6.9,7,6.9z"/>
</g>
</svg>
