<?xml version="1.0" encoding="utf-8"?>
<!-- Generator: Adobe Illustrator 26.3.1, SVG Export Plug-In . SVG Version: 6.00 Build 0)  -->
<svg version="1.1" id="레이어_1" xmlns="http://www.w3.org/2000/svg" xmlns:xlink="http://www.w3.org/1999/xlink" x="0px"
	 y="0px" viewBox="0 0 98.7 78.3" style="enable-background:new 0 0 98.7 78.3;" xml:space="preserve">
<style type="text/css">
	.st0{fill:#FFFFFF;}
</style>
<path class="st0" d="M60.1-0.3l-9.9,40.7c-0.4,1.6-0.7,2.9-1,4c-0.2,1-0.4,1.9-0.6,2.7c-0.1,0.7-0.3,1.5-0.4,2.2
	c-0.1,0.7-0.3,1.6-0.4,2.5c0,0.1,0,0.3-0.1,0.4c-0.2-0.8-0.4-1.5-0.6-2.2c-0.4-1.5-0.8-3.1-1.3-4.5c-0.4-1.5-1-3.1-1.5-4.7L35.7,14
	h-5.3l-8.6,26.4c-0.5,1.6-0.9,3-1.3,4.3c-0.4,1.2-0.8,2.7-1.2,4.3c-0.2,0.9-0.5,2.1-0.8,3.4c0-0.1,0-0.3-0.1-0.4
	c-0.2-1.2-0.4-2.3-0.6-3.5c-0.2-1.2-0.4-2.4-0.7-3.6c-0.3-1.3-0.6-2.6-1-4L6.1-0.3H0L15.4,62h4.7l12.7-38l13.1,38h4.8L66.2-0.3H60.1
	z"/>
<path class="st0" d="M89.6,28.2c0.8-1.1,1.4-2.4,2-3.8c0.6-1.5,1-3.1,1.2-4.8l0.1-0.5h-3.9l-0.1,0.4c-0.2,1.6-0.6,3.1-1.2,4.4
	c-0.2,0.5-0.4,0.9-0.7,1.3l-5.9-6.6c-0.4-0.5-0.9-1.1-1.5-1.7c-0.5-0.6-1.1-1.2-1.6-1.9c-0.5-0.7-0.9-1.4-1.2-2
	c-0.3-0.6-0.5-1.3-0.5-1.9c0-0.9,0.2-1.6,0.5-2.2c0.4-0.6,0.9-1,1.6-1.3c0.7-0.3,1.6-0.5,2.6-0.5c1.3,0,2.3,0.3,3.1,0.8
	c0.8,0.6,1.5,1.5,2.1,2.9l0.2,0.5l3.2-2l-0.1-0.3c-0.4-1.1-1-2.1-1.8-2.9c-0.8-0.8-1.8-1.5-2.9-2c-1.1-0.5-2.4-0.7-3.7-0.7
	c-1.7,0-3.3,0.3-4.6,1c-1.3,0.7-2.4,1.6-3.2,2.8c-0.8,1.2-1.2,2.6-1.2,4.1c0,0.7,0.1,1.5,0.4,2.2c0.2,0.6,0.5,1.2,0.8,1.7
	c-1.8,0.8-3.2,1.9-4.1,3.2c-1.3,1.7-1.9,3.6-1.9,5.8c0,1.8,0.5,3.5,1.5,5c1,1.5,2.3,2.6,4,3.5c1.7,0.8,3.6,1.3,5.7,1.3
	c1.6,0,3-0.2,4.4-0.7c1.4-0.4,2.6-1.1,3.7-1.9c0.1-0.1,0.3-0.2,0.4-0.3l2.4,2.5h5.4L89.6,28.2z M89.1,28.1L89.1,28.1
	C89.1,28.1,89.1,28.1,89.1,28.1L89.1,28.1z M84.4,28.3c-0.6,0.4-1.2,0.8-1.8,1.1c-1.1,0.5-2.3,0.7-3.6,0.7c-1.5,0-2.8-0.3-4-0.8
	c-1.1-0.5-2-1.3-2.7-2.2c-0.6-0.9-1-2-1-3.2c0-1.5,0.5-2.8,1.4-3.9c0.6-0.7,1.5-1.3,2.6-1.8c0.6,0.8,1.3,1.6,2.1,2.4L84.4,28.3z"/>
<path class="st0" d="M80,78.3c-3.7,0-6.9-0.8-9.7-2.5c-2.8-1.6-5.1-3.9-6.7-6.8c-1.6-2.9-2.4-6.2-2.4-9.9c0-3.7,0.8-6.9,2.4-9.8
	c1.6-2.9,3.8-5.1,6.7-6.7c2.8-1.6,6.1-2.5,9.7-2.5c3.6,0,6.8,0.8,9.7,2.5c2.8,1.6,5.1,3.9,6.7,6.7c1.6,2.9,2.4,6.1,2.4,9.8
	c0,3.7-0.8,7-2.4,9.9c-1.6,2.9-3.8,5.2-6.7,6.8C86.8,77.5,83.6,78.3,80,78.3z M80,73.3c2.6,0,4.9-0.6,6.9-1.9c2-1.2,3.6-2.9,4.7-5.1
	c1.1-2.1,1.7-4.6,1.7-7.3c0-2.7-0.6-5.1-1.7-7.2c-1.1-2.1-2.7-3.8-4.7-5c-2-1.2-4.3-1.8-6.9-1.8c-2.6,0-4.9,0.6-6.9,1.8
	c-2,1.2-3.6,2.9-4.8,5c-1.1,2.1-1.7,4.5-1.7,7.2c0,2.7,0.5,5.1,1.7,7.3c1.1,2.1,2.7,3.8,4.8,5.1C75.1,72.7,77.4,73.3,80,73.3z"/>
</svg>
