<?xml version="1.0" encoding="utf-8"?>
<!-- Generator: Adobe Illustrator 26.3.1, SVG Export Plug-In . SVG Version: 6.00 Build 0)  -->
<svg version="1.1" id="Layer_1" xmlns="http://www.w3.org/2000/svg" xmlns:xlink="http://www.w3.org/1999/xlink" x="0px" y="0px"
	 viewBox="0 0 14 14" style="enable-background:new 0 0 14 14;" xml:space="preserve">
<style type="text/css">
	.st0{fill:#000000;}
</style>
<g>
	<path class="st0" d="M10.1,5.4c0-0.4-0.2-0.8-0.5-1.1C9.3,4,8.9,3.9,8.5,3.8c-0.8,0-2.5-0.1-3.2,0C4.6,4,4.1,4.4,3.9,5.1
		c-0.2,0.5-0.1,3,0,3.6C4,9.4,4.4,9.9,5.2,10.1c0.5,0.1,3,0.1,3.5,0c0.7-0.1,1.2-0.6,1.4-1.3C10.2,8.3,10.2,5.9,10.1,5.4z M9.6,8.6
		c-0.1,0.6-0.5,0.9-1,1C8,9.6,5.7,9.7,5.2,9.5C4.8,9.4,4.5,9.1,4.4,8.6C4.4,8.2,4.4,6,4.4,5.4c0.1-0.6,0.5-0.9,1-1
		c0.6-0.1,2.6-0.1,3.1,0c0.6,0.1,0.9,0.5,1,1C9.6,6,9.6,8,9.6,8.6z M7,5.4C6.1,5.4,5.4,6.1,5.4,7c0,0.9,0.7,1.6,1.6,1.6
		c0.9,0,1.6-0.7,1.6-1.6C8.6,6.1,7.9,5.4,7,5.4z M7,8.1c-0.6,0-1-0.5-1-1.1c0-0.6,0.5-1.1,1.1-1.1c0.6,0,1.1,0.5,1.1,1.1
		C8.1,7.6,7.6,8.1,7,8.1z M9.1,5.3c0,0.2-0.2,0.4-0.4,0.4c-0.2,0-0.4-0.2-0.4-0.4c0-0.2,0.2-0.4,0.4-0.4C8.9,4.9,9.1,5.1,9.1,5.3z"
		/>
	<path class="st0" d="M7,13.5c-3.6,0-6.5-2.9-6.5-6.5S3.4,0.5,7,0.5s6.5,2.9,6.5,6.5S10.6,13.5,7,13.5z M7,0.8
		C3.6,0.8,0.8,3.6,0.8,7c0,3.4,2.8,6.2,6.2,6.2s6.2-2.8,6.2-6.2C13.2,3.6,10.4,0.8,7,0.8z"/>
</g>
</svg>
