<?xml version="1.0" encoding="utf-8"?>
<!-- Generator: Adobe Illustrator 26.3.1, SVG Export Plug-In . SVG Version: 6.00 Build 0)  -->
<svg version="1.1" id="Layer_1" xmlns="http://www.w3.org/2000/svg" xmlns:xlink="http://www.w3.org/1999/xlink" x="0px" y="0px"
	 viewBox="0 0 14 14" style="enable-background:new 0 0 14 14;" xml:space="preserve">
<style type="text/css">
	.st0{fill-rule:evenodd;clip-rule:evenodd;fill:#000000;}
	.st1{fill:#000000;}
</style>
<g>
	<path class="st0" d="M6.6,8C6.6,8,6.6,8.1,6.6,8C6.3,9,6.3,9.2,6,9.7c-0.1,0.2-0.3,0.4-0.4,0.6c0,0,0,0-0.1,0c0,0,0,0,0-0.1
		c0-0.3-0.1-0.6-0.1-0.9C5.5,9,5.5,8.9,6,6.8c0,0,0-0.1,0-0.1c-0.1-0.3-0.1-0.6,0-1C6.2,5,7,5,7.1,5.6C7.2,5.9,7,6.4,6.8,7.1
		c-0.1,0.6,0.5,1,1.1,0.6c0.5-0.4,0.7-1.3,0.7-2C8.6,4.4,7.1,4.1,6.2,4.5C5.2,5,4.9,6.3,5.4,6.9C5.5,7,5.5,7,5.5,7.1
		c0,0.1-0.1,0.2-0.1,0.4c0,0.1-0.1,0.1-0.2,0.1C5,7.5,4.9,7.3,4.8,7.2c-0.4-0.5-0.5-1.5,0-2.3C5.4,4,6.5,3.6,7.5,3.7
		c1.2,0.1,1.9,0.9,2.1,1.9C9.6,6,9.6,7,9,7.8C8.3,8.6,7.2,8.7,6.7,8.1C6.6,8.1,6.6,8.1,6.6,8z"/>
	<path class="st1" d="M7,13.5c-3.6,0-6.5-2.9-6.5-6.5S3.4,0.5,7,0.5s6.5,2.9,6.5,6.5S10.6,13.5,7,13.5z M7,0.8
		C3.6,0.8,0.8,3.6,0.8,7c0,3.4,2.8,6.2,6.2,6.2c3.4,0,6.2-2.8,6.2-6.2C13.2,3.6,10.4,0.8,7,0.8z"/>
</g>
</svg>
